<svg width="241" height="41" viewBox="0 0 241 41" fill="none" xmlns="http://www.w3.org/2000/svg">
<g clip-path="url(#clip0_100_13044)">
<path d="M15.3916 20.4947C21.6858 20.4947 26.232 19.883 29.5748 19.0712H29.5732C31.995 18.4846 31.9916 6.8628 17.7866 5.66952C17.5429 5.06784 16.4404 2.46112 14.2084 1.51322C13.9311 1.39557 13.6421 1.31994 13.353 1.2796C13.1782 1.25439 13.0471 1.46448 13.1597 1.60229C13.6841 2.24095 14.1479 4.49473 13.3076 5.64263C-1.21172 6.68801 -1.23021 18.4796 1.20845 19.0712C4.5513 19.883 9.09752 20.4947 15.3916 20.4947Z" fill="#74C947"/>
<path d="M17.4219 37.488C28.9967 35.2662 29.2303 25.3653 29.0152 22.1855C28.9816 21.6897 28.5177 21.3384 28.0303 21.4376C26.1177 21.8258 21.2975 22.5754 15.3799 22.5754C9.46223 22.5754 4.64542 21.8258 2.73618 21.4359C2.24878 21.3367 1.7866 21.6846 1.7513 22.1804C1.51937 25.3905 1.68576 35.488 13.3513 37.488C13.9748 38.0191 15.0101 39.2376 15.3866 39.2325C15.7648 39.2393 16.7984 38.0191 17.4219 37.488Z" fill="#74C947"/>
<path d="M131.575 19.4729C131.575 18.4192 131.442 17.4292 131.165 16.5066C130.888 15.5839 130.459 14.7805 129.879 14.0948C129.3 13.4108 128.573 12.8645 127.705 12.4545C126.834 12.046 125.792 11.841 124.58 11.841C123.894 11.841 123.237 11.9334 122.604 12.1183C121.972 12.3032 121.39 12.5603 120.864 12.8897C120.337 13.2192 119.869 13.6007 119.461 14.036C119.052 14.4696 118.73 14.9385 118.493 15.4393H118.373C118.373 15.0444 118.358 14.5503 118.333 13.957C118.31 13.4528 118.279 12.9923 118.237 12.5738C118.226 12.4494 118.12 12.3553 117.995 12.3553H114.96C114.817 12.3553 114.706 12.4763 114.718 12.6192C114.76 13.162 114.792 13.7721 114.816 14.4511C114.841 15.241 114.854 15.8864 114.854 16.3872V30.8511C114.854 30.9855 114.963 31.0948 115.098 31.0948H118.326C118.461 31.0948 118.57 30.9855 118.57 30.8511V21.1318C118.57 19.2612 119.037 17.7654 119.973 16.6444C120.908 15.525 122.115 14.9637 123.59 14.9637C124.459 14.9637 125.172 15.1234 125.725 15.4393C126.278 15.7553 126.713 16.1788 127.029 16.7049C127.345 17.2326 127.562 17.8376 127.681 18.5234C127.8 19.2091 127.859 19.9351 127.859 20.6982V30.8528C127.859 30.9872 127.968 31.0965 128.103 31.0965H131.331C131.466 31.0965 131.575 30.9872 131.575 30.8528V19.4729Z" fill="#74C947"/>
<path d="M148.496 28.3687C148.918 27.604 149.13 26.6679 149.13 25.562L149.131 25.5587C149.131 24.7418 148.973 24.0309 148.658 23.4242C148.342 22.8175 147.9 22.2982 147.333 21.8629C146.767 21.4276 146.101 21.0662 145.337 20.7755C144.572 20.4847 143.742 20.2343 142.846 20.0242C141.424 19.7082 140.355 19.3587 139.644 18.9771C138.933 18.5956 138.577 18.0074 138.577 17.2175C138.577 16.7687 138.674 16.3939 138.873 16.0897C139.069 15.7855 139.333 15.5368 139.663 15.3385C139.992 15.1418 140.368 14.9956 140.79 14.9032C141.212 14.8124 141.634 14.7654 142.056 14.7654C143.005 14.7654 143.861 14.9822 144.626 15.4175C145.305 15.804 145.851 16.2914 146.259 16.8763C146.342 16.9923 146.506 17.0108 146.616 16.9183L148.804 15.0679C148.9 14.9855 148.92 14.841 148.844 14.7385C148.168 13.8259 147.242 13.1234 146.069 12.6276C144.817 12.1015 143.52 11.8376 142.175 11.8376C141.278 11.8376 140.409 11.9503 139.565 12.1738C138.721 12.399 137.97 12.7418 137.311 13.2024C136.652 13.6645 136.118 14.2578 135.71 14.9822C135.3 15.7082 135.096 16.5721 135.096 17.5721C135.096 18.4427 135.261 19.1738 135.59 19.7671C135.92 20.3603 136.348 20.8545 136.876 21.2494C137.404 21.6461 137.989 21.9553 138.636 22.1788C139.281 22.4024 139.921 22.5939 140.553 22.7519C142.16 23.1217 143.38 23.5166 144.21 23.9385C145.041 24.3603 145.456 25.0057 145.456 25.8746C145.456 26.404 145.35 26.8376 145.14 27.1805C144.928 27.5234 144.646 27.8007 144.289 28.0108C143.933 28.2225 143.538 28.3738 143.103 28.4662C142.668 28.5587 142.212 28.604 141.738 28.604C140.684 28.604 139.715 28.3536 138.832 27.8528C138.032 27.4007 137.39 26.8511 136.905 26.204C136.821 26.0931 136.659 26.0763 136.553 26.1671L134.288 28.0931C134.185 28.1788 134.17 28.3318 134.256 28.4343C135.126 29.4746 136.202 30.2561 137.484 30.7788C138.842 31.3334 140.232 31.6091 141.656 31.6091C142.605 31.6091 143.528 31.5032 144.424 31.2931C145.32 31.083 146.116 30.7334 146.816 30.2461C147.515 29.7603 148.074 29.1334 148.496 28.3687Z" fill="#74C947"/>
<path d="M111.821 15.1486L111.957 12.204C111.963 12.0813 111.879 11.9771 111.76 11.9519C111.405 11.8797 110.987 11.8427 110.505 11.8427C109.239 11.8427 108.1 12.1788 107.084 12.8511C106.069 13.5234 105.3 14.4124 104.772 15.52H104.652C104.652 15.1234 104.637 14.6158 104.612 13.9973C104.59 13.4713 104.558 12.9973 104.516 12.5755C104.505 12.4511 104.399 12.357 104.274 12.357H101.239C101.096 12.357 100.985 12.478 100.997 12.6208C101.039 13.1637 101.071 13.7738 101.095 14.4528C101.12 15.2427 101.133 15.8881 101.133 16.3889V30.8528C101.133 30.9872 101.242 31.0965 101.377 31.0965H104.605C104.74 31.0965 104.849 30.9872 104.849 30.8528V21.2511C104.849 20.4595 104.953 19.7015 105.165 18.9771C105.375 18.2528 105.698 17.6124 106.133 17.0595C106.568 16.5066 107.115 16.0645 107.773 15.7351C108.432 15.4057 109.21 15.241 110.106 15.241C110.609 15.241 111.084 15.2864 111.533 15.3771C111.678 15.4074 111.814 15.2965 111.821 15.1486Z" fill="#74C947"/>
<path d="M76.3416 28.8679C76.4323 28.7687 76.4222 28.6141 76.3231 28.5234V28.52L74.2004 26.599C74.1012 26.5099 73.9466 26.515 73.8575 26.6158C73.3819 27.1603 72.7937 27.599 72.0945 27.9318C71.3163 28.2998 70.481 28.4847 69.5046 28.4847C68.5281 28.4847 67.6592 28.3015 66.8945 27.9318C66.1281 27.5637 65.4827 27.0679 64.9567 26.4494C64.4289 25.8309 64.0273 25.1133 63.75 24.2948C63.4726 23.478 63.3348 22.6208 63.3348 21.725C63.3348 20.8292 63.4743 19.9738 63.75 19.1553C64.0273 18.3385 64.4289 17.6192 64.9567 17.0007C65.4827 16.3822 66.1231 15.8881 66.8743 15.5183C67.6256 15.1503 68.4895 14.9654 69.4642 14.9654C70.36 14.9654 71.2037 15.1704 71.9937 15.5788C72.6945 15.9402 73.2407 16.3805 73.6306 16.8982C73.713 17.0057 73.8693 17.0225 73.9752 16.9368L76.2726 15.078C76.3768 14.9939 76.397 14.841 76.3113 14.7368C75.5634 13.8276 74.5785 13.1267 73.3584 12.6326C72.0525 12.1066 70.7416 11.8427 69.4239 11.8427C68.0004 11.8427 66.676 12.0813 65.4508 12.5553C64.2239 13.0292 63.1634 13.7032 62.2676 14.5721C61.3718 15.4427 60.6726 16.4847 60.1718 17.6965C59.671 18.9082 59.4205 20.2259 59.4205 21.7284C59.4205 23.2309 59.6777 24.5889 60.192 25.8007C60.7046 27.0141 61.4105 28.0477 62.3063 28.9049C63.2021 29.762 64.2642 30.4259 65.4895 30.9015C66.7163 31.3755 68.0004 31.6124 69.5029 31.6124C71.0054 31.6124 72.35 31.3553 73.5365 30.841C74.6441 30.3603 75.5785 29.7032 76.3416 28.8679Z" fill="#74C947"/>
<path fill-rule="evenodd" clip-rule="evenodd" d="M94.8659 14.6091C93.9567 13.7402 92.8827 13.0612 91.6441 12.5738C90.4054 12.0864 89.0743 11.841 87.6508 11.841C86.2273 11.841 84.8962 12.0847 83.6575 12.5738C82.4189 13.0612 81.3516 13.7402 80.4558 14.6091C79.56 15.4797 78.8542 16.515 78.3416 17.7133C77.8273 18.9133 77.5701 20.2376 77.5701 21.6864C77.5701 23.1351 77.8273 24.4679 78.3416 25.6797C78.8558 26.8931 79.56 27.9402 80.4558 28.8225C81.3516 29.7066 82.4189 30.3906 83.6575 30.878C84.8962 31.3654 86.2273 31.6091 87.6508 31.6091C89.0743 31.6091 90.4054 31.3654 91.6441 30.878C92.8827 30.3906 93.9567 29.7066 94.8659 28.8225C95.7752 27.9402 96.4861 26.8914 97.0004 25.6797C97.5147 24.4679 97.7718 23.1368 97.7718 21.6864C97.7718 20.236 97.5147 18.9133 97.0004 17.7133C96.4861 16.5133 95.7752 15.4797 94.8659 14.6091ZM92.271 26.4376C92.8004 25.8074 93.2037 25.0847 93.4811 24.2696C93.7584 23.4545 93.8979 22.6007 93.8979 21.7066C93.8979 20.8124 93.7584 19.9587 93.4811 19.1435C93.2021 18.3284 92.8004 17.6141 92.271 16.9956C91.7432 16.3771 91.0878 15.8847 90.3079 15.5166C89.5281 15.1486 88.6357 14.9637 87.6306 14.9637C86.6256 14.9637 85.7332 15.1486 84.9533 15.5166C84.1735 15.8847 83.5197 16.3771 82.9903 16.9956C82.4609 17.6141 82.0575 18.3301 81.7802 19.1435C81.5012 19.9587 81.3634 20.8124 81.3634 21.7066C81.3634 22.6007 81.5029 23.4561 81.7802 24.2696C82.0575 25.0847 82.4609 25.8074 82.9903 26.4376C83.5197 27.0679 84.1735 27.5671 84.9533 27.9351C85.7332 28.3049 86.6256 28.4881 87.6306 28.4881C88.6357 28.4881 89.5281 28.3032 90.3079 27.9351C91.0878 27.5671 91.7416 27.0679 92.271 26.4376Z" fill="#74C947"/>
<path fill-rule="evenodd" clip-rule="evenodd" d="M56.2794 29.3771C56.2407 28.6797 56.2205 28.0124 56.2205 27.3805V19.1973C56.2205 18.1687 56.0626 17.2074 55.7466 16.3116C55.4306 15.4158 54.9567 14.6376 54.3231 13.9788C53.6911 13.32 52.8794 12.799 51.8911 12.4175C50.9029 12.036 49.7365 11.8444 48.392 11.8444C46.8626 11.8444 45.4323 12.0948 44.1012 12.5956C42.8525 13.0662 41.7819 13.6982 40.8928 14.4948C40.7953 14.5822 40.7869 14.7318 40.871 14.8326L42.5315 16.8242C42.6222 16.9334 42.7836 16.9402 42.8878 16.8444C43.4861 16.2931 44.2071 15.8326 45.0525 15.4629C45.9869 15.0545 46.9836 14.8511 48.0374 14.8511C49.434 14.8511 50.5533 15.1872 51.3987 15.8595C52.2424 16.5318 52.6642 17.5671 52.6642 18.9637V19.236C52.6642 19.3704 52.555 19.478 52.4222 19.478C50.9231 19.4847 49.4357 19.5503 47.96 19.6746C46.4054 19.8074 45.0071 20.0897 43.7684 20.525C42.5298 20.9603 41.5281 21.5923 40.7634 22.4225C39.9987 23.2528 39.6172 24.3805 39.6172 25.804C39.6172 26.8847 39.834 27.7956 40.2693 28.5318C40.7046 29.2696 41.2508 29.8629 41.9096 30.3116C42.5684 30.7603 43.2995 31.083 44.1046 31.2797C44.9079 31.478 45.6794 31.5755 46.4172 31.5755C47.8407 31.5755 49.0726 31.2998 50.113 30.7452C51.1533 30.1923 52.0172 29.4141 52.7029 28.4124H52.8222C52.8222 29.2444 52.913 30.078 53.0945 30.9099C53.1197 31.0225 53.2205 31.1015 53.3348 31.1015H56.2004C56.3533 31.1015 56.4676 30.9637 56.439 30.8141C56.3651 30.4158 56.313 29.9385 56.281 29.3822L56.2794 29.3771ZM51.2592 27.0847C52.1937 26.0427 52.6626 24.7318 52.6626 23.1503V22.4074C52.6626 22.2729 52.5533 22.1637 52.4189 22.1637H51.7533C50.8306 22.1637 49.876 22.2024 48.8878 22.2813C47.8995 22.362 47.0021 22.5183 46.1987 22.757C45.3937 22.9939 44.7298 23.3503 44.2021 23.8242C43.6743 24.2982 43.4121 24.9318 43.4121 25.7217C43.4121 26.2746 43.5247 26.7351 43.7483 27.1049C43.9718 27.4746 44.2676 27.7771 44.6374 28.0141C45.0054 28.2511 45.4138 28.4158 45.8626 28.5082C46.3096 28.6007 46.7718 28.6461 47.2458 28.6461C48.9852 28.6461 50.3231 28.1267 51.2592 27.0847Z" fill="#74C947"/>
<path d="M210.876 15.7269L211.039 11.7655C211.047 11.5773 210.929 11.4076 210.751 11.3487L210.692 11.3286C210.175 11.1555 209.588 11.0681 208.968 11.0681C208.348 11.0681 207.721 11.1605 207.102 11.3437C206.491 11.5235 205.919 11.7723 205.403 12.0782C204.884 12.3857 204.408 12.7622 203.986 13.1975L203.835 13.3538V11.9588C203.835 11.7269 203.645 11.537 203.413 11.537H199.726C199.494 11.537 199.304 11.7269 199.304 11.9588V30.6748C199.304 30.9067 199.494 31.0966 199.726 31.0966H203.413C203.645 31.0966 203.835 30.9067 203.835 30.6748V21.2782C203.835 19.3857 204.25 17.9874 205.067 17.1235C205.877 16.2664 207.084 15.8328 208.654 15.8328C208.907 15.8328 209.166 15.8563 209.423 15.9034C209.699 15.9538 209.975 16.016 210.244 16.0899L210.343 16.1168C210.378 16.1269 210.417 16.1319 210.454 16.1319C210.681 16.1319 210.865 15.9538 210.876 15.7269Z" fill="white"/>
<path d="M218.254 30.5941V1.0042C218.254 0.726891 218.027 0.5 217.749 0.5H214.227C213.949 0.5 213.723 0.726891 213.723 1.0042V30.5941C213.723 30.8714 213.949 31.0983 214.227 31.0983H217.749C218.027 31.0983 218.254 30.8714 218.254 30.5941Z" fill="white"/>
<path d="M231.487 34.7689L240.294 12.2244L240.297 12.2294C240.358 12.0748 240.338 11.9 240.244 11.7622C240.149 11.6244 239.993 11.542 239.827 11.542H236.069C235.857 11.542 235.667 11.6748 235.595 11.8731L230.751 25.1857L225.699 11.8664C225.627 11.6714 225.437 11.5403 225.228 11.5403H221.158C220.99 11.5403 220.834 11.6244 220.739 11.7639C220.645 11.9034 220.628 12.0798 220.692 12.2361L228.267 30.6563C228.282 30.6966 228.282 30.7403 228.267 30.7807L227.223 33.4664C227.049 33.9168 226.872 34.3235 226.697 34.6765C226.541 34.9924 226.343 35.2714 226.111 35.505C225.889 35.7269 225.622 35.8983 225.316 36.016C224.997 36.137 224.593 36.1975 224.114 36.1975C223.482 36.1975 222.84 36.0647 222.205 35.8042C222.143 35.779 222.079 35.7655 222.013 35.7655C221.763 35.7655 221.548 35.9538 221.514 36.2025L221.086 39.4126C221.055 39.6378 221.18 39.8563 221.388 39.9437C221.923 40.1689 222.486 40.3202 223.062 40.3908C223.617 40.458 224.168 40.4916 224.702 40.4916C225.721 40.4916 226.603 40.3471 227.323 40.0647C228.047 39.779 228.676 39.3723 229.192 38.8546C229.694 38.3487 230.133 37.7336 230.492 37.0244C230.837 36.3454 231.171 35.5857 231.487 34.7689Z" fill="white"/>
<path fill-rule="evenodd" clip-rule="evenodd" d="M195.728 29.0042C195.702 28.4681 195.689 27.8697 195.689 27.2277V17.7555C195.689 16.8866 195.526 16.0395 195.202 15.2378C194.874 14.4277 194.365 13.7017 193.686 13.0782C193.012 12.4597 192.143 11.9639 191.102 11.6042C190.074 11.2479 188.84 11.0681 187.435 11.0681C186.03 11.0681 184.707 11.3084 183.355 11.7807C181.99 12.258 180.773 12.984 179.734 13.9403C179.634 14.0328 179.576 14.1588 179.571 14.2966C179.568 14.4328 179.617 14.5622 179.713 14.6613L181.827 16.8529C181.921 16.9504 182.054 17.0076 182.19 17.0076C182.299 17.0076 182.405 16.9723 182.492 16.9067C182.807 16.6714 183.134 16.4227 183.476 16.1588C183.785 15.9202 184.136 15.7101 184.518 15.5303C184.902 15.3504 185.339 15.1958 185.818 15.0731C186.284 14.9538 186.842 14.8933 187.474 14.8933C188.161 14.8933 188.756 14.9924 189.242 15.1891C189.721 15.3824 190.123 15.6462 190.439 15.9723C190.756 16.3 190.997 16.6731 191.153 17.0765C191.312 17.4866 191.393 17.9 191.393 18.3034V18.4143C191.393 18.5067 191.318 18.5824 191.225 18.5824H189.314C187.884 18.5824 186.518 18.6966 185.252 18.9235C183.963 19.1538 182.818 19.542 181.85 20.0731C180.855 20.6193 180.059 21.3387 179.481 22.2126C178.892 23.1017 178.595 24.2092 178.595 25.505C178.595 26.4933 178.783 27.3773 179.155 28.1336C179.524 28.8882 180.039 29.5319 180.682 30.0479C181.318 30.5555 182.065 30.942 182.907 31.1941C183.734 31.4412 184.612 31.5672 185.518 31.5672C186.991 31.5672 188.314 31.3017 189.447 30.7773C190.24 30.4092 190.968 29.858 191.615 29.1319C191.635 29.6328 191.665 30.137 191.707 30.6361C191.729 30.895 191.949 31.0983 192.21 31.0983H195.341C195.484 31.0983 195.62 31.0378 195.716 30.9319C195.812 30.8261 195.857 30.6832 195.842 30.542C195.791 30.0613 195.755 29.5437 195.728 29.0042ZM183.669 23.7824C183.304 24.1571 183.126 24.6311 183.126 25.2311C183.126 26.1286 183.403 26.7454 183.975 27.1185C184.607 27.5303 185.494 27.7403 186.615 27.7403C187.501 27.7403 188.255 27.5924 188.862 27.3017C189.469 27.0092 189.963 26.6294 190.331 26.1689C190.704 25.7017 190.976 25.1756 191.139 24.6042C191.307 24.0126 191.393 23.4193 191.393 22.8445V22.342C191.393 22.2496 191.318 22.174 191.225 22.174H190.018C189.207 22.174 188.361 22.2193 187.507 22.3084C186.679 22.3958 185.916 22.5639 185.24 22.8092C184.598 23.0429 184.069 23.3706 183.669 23.7824Z" fill="white"/>
<path fill-rule="evenodd" clip-rule="evenodd" d="M174.262 14.3706C173.489 13.3908 172.491 12.5874 171.296 11.9824C170.094 11.3756 168.615 11.0664 166.899 11.0664C165.455 11.0664 164.099 11.3303 162.867 11.8496C161.635 12.3706 160.56 13.1 159.669 14.0176C158.78 14.9353 158.072 16.0294 157.568 17.2714C157.062 18.5134 156.807 19.8748 156.807 21.3168C156.807 22.7588 157.042 24.1118 157.504 25.3487C157.968 26.5924 158.642 27.6899 159.507 28.6092C160.375 29.5319 161.447 30.263 162.694 30.784C163.938 31.3034 165.341 31.5672 166.86 31.5672C170.531 31.5672 173.43 30.2244 175.479 27.5756C175.561 27.4681 175.598 27.3353 175.58 27.2025C175.563 27.0681 175.494 26.9487 175.386 26.8681L172.724 24.8328C172.635 24.7655 172.529 24.7286 172.418 24.7286C172.265 24.7286 172.123 24.7958 172.027 24.9151C171.386 25.7034 170.677 26.3454 169.919 26.8227C169.195 27.2782 168.324 27.5084 167.331 27.5084C166.581 27.5084 165.847 27.3857 165.146 27.1437C164.45 26.905 163.83 26.5639 163.306 26.1336C162.786 25.7084 162.361 25.1891 162.044 24.5857C161.835 24.1924 161.694 23.7605 161.625 23.305C161.615 23.2412 161.645 23.1958 161.664 23.174C161.696 23.1353 161.743 23.1134 161.793 23.1134H175.943C176.22 23.1134 176.447 22.8866 176.447 22.6092V21.3571C176.447 20.1168 176.276 18.8798 175.939 17.6782C175.597 16.458 175.028 15.3454 174.262 14.3706ZM161.941 18.0899C161.798 18.4261 161.697 18.7655 161.637 19.0966C161.625 19.1588 161.654 19.2042 161.672 19.2261C161.704 19.2664 161.753 19.2882 161.803 19.2882H171.457C171.506 19.2882 171.551 19.2681 171.583 19.2311C171.617 19.1941 171.632 19.1471 171.625 19.0983C171.568 18.6378 171.471 18.2008 171.334 17.8008C171.136 17.2176 170.835 16.705 170.442 16.2765C170.05 15.8496 169.551 15.5101 168.958 15.2664C168.358 15.0193 167.607 14.8933 166.822 14.8933C166.037 14.8933 165.311 15.0429 164.662 15.337C164.007 15.6345 163.447 16.0244 162.998 16.4966C162.546 16.9723 162.19 17.5084 161.941 18.0899Z" fill="white"/>
</g>
<defs>
<clipPath id="clip0_100_13044">
<rect width="240.672" height="40" fill="white" transform="translate(0 0.5)"/>
</clipPath>
</defs>
</svg>
